# xmcd
#
# Track frame offsets:
#	150
#	25942
#	40732
#	50682
#	67665
#	101321
#	119312
#	143350
#	160029
#	181197
#
# Disc length: 2705 seconds
#
# Revision: 1
# Processed by: cddbd v1.5.2PL0 Copyright (c) Steve Scherf et al.
# Submitted via: audiograbber 1.83.01
#
DISCID=700a8f0a
DTITLE=Peter Blegwad and Andy Partridge - Gonwards
DYEAR=2012
DGENRE=Rock
TTITLE0=The Devil's Lexicon
TTITLE1=Sacred Objects
TTITLE2=Looking at the Sun
TTITLE3=St. Augustine Says
TTITLE4=The Cryonic Trombone
TTITLE5=The Impeccable Dandy in White
TTITLE6=What a Car You Are
TTITLE7=The Dope on Perelman
TTITLE8=From Germ to Gem
TTITLE9=Worse on the Way
EXTD=
EXTT0=
EXTT1=
EXTT2=
EXTT3=
EXTT4=
EXTT5=
EXTT6=
EXTT7=
EXTT8=
EXTT9=
PLAYORDER=
